#N canvas 145 185 1022 559 10;
#X text 95 401 Myo Mapper Receiver/Sender Here a patch to get started
getting Thalmic's Myo armband (www.myo.com) into Pd using Myo Mapper
(www.balandinodidonato.com/myomapper).;
#X obj 8 178 oscparse;
#X obj 8 200 list trim;
#X obj 8 248 route myo1;
#X floatatom 8 74 6 0 0 1 OSC_Port_Receiver - -, f 6;
#X msg 8 50 5432;
#X obj 94 218 spigot;
#X obj 157 74 tgl 15 0 empty empty PRINT_MYO_DATA 17 7 0 10 -262144
-1 -1 0 1;
#X obj 8 25 r init;
#X obj 157 31 r init;
#X msg 157 53 1;
#X obj 8 156 netreceive -u -b;
#X msg 8 134 listen \$1;
#X obj 94 247 print MyoData;
#X obj 53 331 outlet;
#X obj 8 331 outlet;
#X obj 98 332 outlet;
#X obj 145 332 outlet;
#X obj 796 341 outlet;
#X text 8 94 EMGs;
#X text 53 94 EMGs;
#X text 48 105 scaled;
#X obj 74 25 loadbang;
#X text 115 94 EMGs;
#X text 118 105 mav;
#X text 158 105 MAV's WFL;
#X text 170 94 EMGs;
#X obj 427 335 outlet;
#X obj 477 335 outlet;
#X obj 616 335 outlet;
#X obj 667 335 outlet;
#X obj 253 334 outlet;
#X obj 303 334 outlet;
#X obj 353 334 outlet;
#X text 358 104 WFL;
#X text 274 94 ORIENTATION;
#X text 292 105 Scaled;
#X text 248 103 Raw;
#X text 413 104 Raw;
#X text 420 92 ACCELERATION;
#X text 588 104 Raw;
#X text 620 92 GYRO;
#X text 752 101 POSE;
#X text 857 101 ALL;
#X text 801 101 ALL-EMG;
#X obj 8 307 route raw scaled mav mavWfL;
#X obj 427 308 route raw scaled scaledWfL;
#X obj 529 335 outlet;
#X obj 616 308 route raw scaled scaledWfL;
#X obj 718 335 outlet;
#X text 477 104 Scaled;
#X text 533 104 WfL;
#X text 637 104 Scaled;
#X text 703 104 WfL;
#X obj 253 307 route raw scaled scaledWfL;
#X obj 8 285 route EMG orientation acceleration gyro pose, f 152;
#X connect 1 0 2 0;
#X connect 2 0 3 0;
#X connect 2 0 6 0;
#X connect 3 0 55 0;
#X connect 4 0 12 0;
#X connect 5 0 4 0;
#X connect 6 0 13 0;
#X connect 7 0 6 1;
#X connect 8 0 5 0;
#X connect 9 0 10 0;
#X connect 10 0 7 0;
#X connect 11 0 1 0;
#X connect 12 0 11 0;
#X connect 22 0 5 0;
#X connect 45 0 15 0;
#X connect 45 1 14 0;
#X connect 45 2 16 0;
#X connect 45 3 17 0;
#X connect 46 0 27 0;
#X connect 46 1 28 0;
#X connect 46 2 47 0;
#X connect 48 0 29 0;
#X connect 48 1 30 0;
#X connect 48 2 49 0;
#X connect 54 0 31 0;
#X connect 54 1 32 0;
#X connect 54 2 33 0;
#X connect 55 0 45 0;
#X connect 55 1 54 0;
#X connect 55 2 46 0;
#X connect 55 3 48 0;
#X connect 55 4 18 0;
#X coords 0 -1 1 1 877 70 1 2 50;
