#N canvas 363 200 666 569 10;
#X obj 13 223 oscparse;
#X obj 13 245 list trim;
#X obj 13 201 netreceive -u -b;
#X obj 13 113 loadbang;
#X msg 13 179 listen \$1;
#X floatatom 13 158 5 0 0 1 OSC_port - -, f 5;
#X obj 21 272 print OSC_messages;
#X obj 13 322 route orientation emg pose, f 105;
#X symbolatom 431 369 10 0 0 0 Pose: - -, f 10;
#X text 136 273 <- Print all OSC messages in input;
#X obj 13 344 route scaled;
#X obj 13 366 unpack f f f;
#X obj 13 388 vsl 15 128 0 1 0 0 empty empty empty 0 -9 0 10 -262144
-1 -1 4408 1;
#X obj 47 388 vsl 15 128 0 1 0 0 empty empty empty 0 -9 0 10 -262144
-1 -1 210 1;
#X obj 82 388 vsl 15 128 0 1 0 0 empty empty empty 0 -9 0 10 -262144
-1 -1 264 1;
#X text 9 523 Yaw;
#X text 37 523 Pitch;
#X text 77 523 Roll;
#X obj 222 344 route scaled;
#X obj 222 410 vsl 15 128 0 1 0 0 empty empty empty 0 20 0 10 -262144
-1 -1 847 1;
#X obj 240 410 vsl 15 128 0 1 0 0 empty empty empty 0 -9 0 10 -262144
-1 -1 329 1;
#X obj 258 410 vsl 15 128 0 1 0 0 empty empty empty 0 -9 0 10 -262144
-1 -1 1880 1;
#X obj 222 366 route abs;
#X obj 222 388 unpack f f f f f f f f;
#X obj 277 410 vsl 15 128 0 1 0 0 empty empty empty 0 -9 0 10 -262144
-1 -1 2361 1;
#X obj 295 410 vsl 15 128 0 1 0 0 empty empty empty 0 -9 0 10 -262144
-1 -1 269 1;
#X obj 314 410 vsl 15 128 0 1 0 0 empty empty empty 0 -9 0 10 -262144
-1 -1 189 1;
#X obj 332 410 vsl 15 128 0 1 0 0 empty empty empty 0 -9 0 10 -262144
-1 -1 259 1;
#X obj 351 410 vsl 15 128 0 1 0 0 empty empty empty 0 -9 0 10 -262144
-1 -1 309 1;
#X text 198 543 EMG 1 2 3 4 5 6 7 8;
#X obj 13 135 i 5432;
#X obj 13 297 route myo1;
#X obj 431 346 symbol;
#X text 12 6 Myo Mapper;
#X text 12 23 Myo A small example of how import Myo data into Max using
Myo Mapper 3 For more info visit http://www.balandinodidonato.com/myomapper/
or contac Myo Mapper's the developer: info@balandinodidonato.com;
#X connect 0 0 1 0;
#X connect 1 0 6 0;
#X connect 1 0 31 0;
#X connect 2 0 0 0;
#X connect 3 0 30 0;
#X connect 4 0 2 0;
#X connect 5 0 4 0;
#X connect 7 0 10 0;
#X connect 7 1 18 0;
#X connect 7 2 32 0;
#X connect 10 0 11 0;
#X connect 11 0 12 0;
#X connect 11 1 13 0;
#X connect 11 2 14 0;
#X connect 18 0 22 0;
#X connect 22 0 23 0;
#X connect 23 0 19 0;
#X connect 23 1 20 0;
#X connect 23 2 21 0;
#X connect 23 3 24 0;
#X connect 23 4 25 0;
#X connect 23 5 26 0;
#X connect 23 6 27 0;
#X connect 23 7 28 0;
#X connect 30 0 5 0;
#X connect 31 0 7 0;
#X connect 32 0 8 0;
