#N canvas 0 22 649 307 10;
#X floatatom 127 22 5 0 1 0 In_Min - -, f 5;
#X floatatom 127 42 5 0 1 0 In_Max - -, f 5;
#X floatatom 211 22 5 -1 2 0 Out_Min - -, f 5;
#X floatatom 211 42 5 -1 2 0 Out_Max - -, f 5;
#X obj 8 23 bng 15 250 50 0 empty empty Calibrate 17 7 0 10 -262144
-1 -1;
#X obj 8 42 tgl 15 0 empty empty Reverse 17 7 0 10 -262144 -1 -1 0
1;
#X obj 11 183 s oscToMyoMapper;
#X obj 11 256 s oscToMyoMapper;
#X obj 241 164 s oscToMyoMapper;
#X obj 241 233 s oscToMyoMapper;
#X obj 433 163 s oscToMyoMapper;
#X obj 433 233 s oscToMyoMapper;
#X obj 11 143 symbol;
#X msg 11 121 calibrate;
#X obj 11 163 oscformat myo1 \$1 calibrate;
#X obj 11 233 oscformat myo1 \$1 reverse;
#X obj 241 141 oscformat myo1 \$1 inMin;
#X obj 241 211 oscformat myo1 \$1 inMax;
#X obj 433 141 oscformat myo1 \$1 outMin;
#X obj 433 211 oscformat myo1 \$1 outMax;
#X obj 370 2 loadbang;
#X obj 370 24 i 1;
#X connect 0 0 16 0;
#X connect 1 0 17 0;
#X connect 2 0 18 0;
#X connect 3 0 19 0;
#X connect 4 0 13 0;
#X connect 5 0 15 0;
#X connect 12 0 14 0;
#X connect 13 0 12 0;
#X connect 14 0 6 0;
#X connect 15 0 7 0;
#X connect 16 0 8 0;
#X connect 17 0 9 0;
#X connect 18 0 10 0;
#X connect 19 0 11 0;
#X connect 20 0 21 0;
#X connect 21 0 3 0;
#X connect 21 0 1 0;
#X coords 0 -1 1 1 250 60 1 1 1;
