#N canvas 517 22 400 321 10;
#X obj 43 107 route myo1;
#X obj 228 218 unpack 0 0 0 0 0 0 0 0;
#X obj 228 198 route mavg;
#N canvas 0 22 211 271 oscReceiver 0;
#X obj 14 148 oscparse;
#X obj 14 170 list trim;
#X obj 14 126 netreceive -u -b;
#X obj 14 38 loadbang;
#X msg 14 104 listen \$1;
#X floatatom 14 83 5 0 0 1 OSC_port - -, f 5;
#X obj 14 60 i 5432;
#X obj 14 192 outlet;
#X connect 0 0 1 0;
#X connect 1 0 7 0;
#X connect 2 0 0 0;
#X connect 3 0 6 0;
#X connect 4 0 2 0;
#X connect 5 0 4 0;
#X connect 6 0 5 0;
#X restore 43 83 pd oscReceiver;
#X obj 43 132 route emg, f 10;
#X obj 43 154 route scaled;
#X obj 43 218 unpack 0 0 0 0 0 0 0 0;
#X obj 43 176 route abs;
#X obj 43 239 > 0.05;
#X obj 228 239 > 0.05;
#N canvas 0 22 450 300 text 0;
#X obj 36 90 sel 0 1;
#X obj 226 90 sel 0 1;
#X obj 226 69 r emgAbsMavg;
#X obj 36 69 r emgAbs;
#X msg 36 118 \; absPoseCan label Pose:_REST;
#X msg 55 148 \; absPoseCan label Pose:_FIST;
#X msg 226 118 \; absMavgPoseCan label Pose:_REST;
#X msg 245 148 \; absMavgPoseCan label Pose:_FIST;
#X connect 0 0 4 0;
#X connect 0 1 5 0;
#X connect 1 0 6 0;
#X connect 1 1 7 0;
#X connect 2 0 1 0;
#X connect 3 0 0 0;
#X restore 163 84 pd text;
#X obj 22 278 cnv 15 100 25 empty absPoseCan Pose:_REST 20 12 0 14
-262144 -66577 0;
#X obj 43 260 s emgAbs;
#X obj 228 260 s emgAbsMavg;
#X obj 208 279 cnv 15 100 25 empty absMavgPoseCan Pose:_REST 20 12
0 14 -262144 -66577 0;
#X text 19 35 Comparison EMG absolute value and EMG amsolute value
moving average features for classification rest and fist poses using
a decision boundary algorithm.;
#X text 20 19 Myo Mapper classification example;
#X connect 0 0 4 0;
#X connect 1 0 9 0;
#X connect 2 0 1 0;
#X connect 3 0 0 0;
#X connect 4 0 5 0;
#X connect 5 0 7 0;
#X connect 6 0 8 0;
#X connect 7 0 6 0;
#X connect 7 0 2 0;
#X connect 8 0 12 0;
#X connect 9 0 13 0;
