#N canvas 341 473 264 278 10;
#X text 13 22 Settings:;
#X text 29 38 \$1 - Myo number;
#X text 29 48 \$2 - OSC port;
#N canvas 598 515 639 207 orientation 0;
#X obj 23 29 inlet;
#X obj 23 59 route /myo1/orientation/raw;
#X obj 182 93 route /myo1/orientation/scaled;
#X obj 359 125 route /myo1/orientation/scaledWfL;
#X obj 554 147 outlet;
#X obj 23 86 s orientRaw\$1;
#X obj 182 116 s orientScaled\$1;
#X obj 359 149 s orientScaledWfl\$1;
#X connect 0 0 1 0;
#X connect 1 0 5 0;
#X connect 1 1 2 0;
#X connect 2 0 6 0;
#X connect 2 1 3 0;
#X connect 3 0 7 0;
#X connect 3 1 4 0;
#X restore 13 159 pd orientation;
#N canvas 307 626 830 237 acceleration 0;
#X obj 23 29 inlet;
#X obj 23 59 route /myo1/acceleration/raw;
#X obj 188 93 route /myo1/acceleration/scaled;
#X obj 371 125 route /myo1/acceleration/scaledWfL;
#X obj 755 180 outlet;
#X obj 572 154 route /myo1/acceleration/rawWfL;
#X obj 23 85 s accRaw\$1;
#X obj 188 119 s accScaled\$1;
#X obj 371 149 s accScaledWfl\$1;
#X obj 572 184 s accRawWfl\$1;
#X connect 0 0 1 0;
#X connect 1 0 6 0;
#X connect 1 1 2 0;
#X connect 2 0 7 0;
#X connect 2 1 3 0;
#X connect 3 0 8 0;
#X connect 3 1 5 0;
#X connect 5 0 9 0;
#X connect 5 1 4 0;
#X restore 13 179 pd acceleration;
#N canvas 383 525 715 237 EMG 0;
#X obj 23 29 inlet;
#X obj 23 59 route /myo1/EMG/raw;
#X obj 134 82 route /myo1/EMG/scaled;
#X obj 263 112 route /myo1/EMG/scaledAbs;
#X obj 410 140 route /myo1/EMG/mav;
#X obj 521 166 route /myo1/EMG/mavWfL;
#X obj 650 192 outlet;
#X obj 23 85 s emgRaw\$1;
#X obj 134 108 s emgScaled\$1;
#X obj 263 134 s emgScaledAbs\$1;
#X obj 410 167 s emgMav\$1;
#X obj 521 193 s emgMavWfl\$1;
#X connect 0 0 1 0;
#X connect 1 0 7 0;
#X connect 1 1 2 0;
#X connect 2 0 8 0;
#X connect 2 1 3 0;
#X connect 3 0 9 0;
#X connect 3 1 4 0;
#X connect 4 0 10 0;
#X connect 4 1 5 0;
#X connect 5 0 11 0;
#X connect 5 1 6 0;
#X restore 13 219 pd EMG;
#N canvas 448 485 687 238 gyro 0;
#X obj 23 29 inlet;
#X obj 563 180 outlet;
#X obj 23 59 route /myo1/gyro/raw;
#X obj 140 93 route /myo1/gyro/scaled;
#X obj 275 125 route /myo1/gyro/scaledWfL;
#X obj 428 154 route /myo1/gyro/rawWfL;
#X obj 23 87 s gyroRaw\$1;
#X obj 140 117 s gyroScaled\$1;
#X obj 275 152 s gyroScaledWfl\$1;
#X obj 428 181 s gyroRawWfl\$1;
#X connect 0 0 2 0;
#X connect 2 0 6 0;
#X connect 2 1 3 0;
#X connect 3 0 7 0;
#X connect 3 1 4 0;
#X connect 4 0 8 0;
#X connect 4 1 5 0;
#X connect 5 0 9 0;
#X connect 5 1 1 0;
#X restore 13 199 pd gyro;
#N canvas 469 529 207 199 pose 0;
#X obj 20 17 inlet;
#X obj 20 46 route /myo1/pose;
#X obj 20 77 s pose\$1;
#X connect 0 0 1 0;
#X connect 1 0 2 0;
#X restore 13 239 pd pose;
#X obj 13 114 mrpeach/unpackOSC;
#X obj 13 137 mrpeach/pipelist;
#X obj 13 89 mrpeach/udpreceive \$2;
#X connect 3 0 4 0;
#X connect 4 0 6 0;
#X connect 5 0 7 0;
#X connect 6 0 5 0;
#X connect 8 0 9 0;
#X connect 8 1 9 1;
#X connect 9 0 3 0;
#X connect 10 0 8 0;
