#N canvas 465 101 774 640 10;
#X obj 15 151 unpack f f f;
#X floatatom 15 173 5 0 0 0 yaw - -;
#X floatatom 49 193 5 0 0 0 pitch - -;
#X floatatom 84 213 5 0 0 0 roll - -;
#X obj 15 271 unpack f f f;
#X floatatom 15 293 5 0 0 0 yaw - -;
#X floatatom 49 313 5 0 0 0 pitch - -;
#X floatatom 84 333 5 0 0 0 roll - -;
#X obj 15 249 r orientScaled1;
#X obj 15 129 r orientRaw1;
#X obj 15 391 unpack f f f;
#X floatatom 15 413 5 0 0 0 yaw - -;
#X floatatom 49 433 5 0 0 0 pitch - -;
#X floatatom 84 453 5 0 0 0 roll - -;
#X obj 15 369 r orientScaledWfl1;
#X obj 145 151 unpack f f f;
#X floatatom 145 173 5 0 0 0 accX - -;
#X floatatom 179 193 5 0 0 0 accY - -;
#X floatatom 214 213 5 0 0 0 accZ - -;
#X obj 145 129 r accRaw1;
#X obj 145 249 r accScaled1;
#X obj 145 369 r accRawWfl1;
#X obj 142 498 r accScaledWfl1;
#X obj 275 151 unpack f f f;
#X floatatom 275 173 5 0 0 0 gyroX - -;
#X floatatom 309 193 5 0 0 0 gyroY - -;
#X floatatom 344 213 5 0 0 0 gyroZ - -;
#X obj 272 520 unpack f f f;
#X floatatom 272 542 5 0 0 0 x - -;
#X floatatom 306 562 5 0 0 0 y - -;
#X floatatom 341 582 5 0 0 0 z - -;
#X obj 275 129 r gyroRaw1;
#X obj 275 249 r gyroScaled1;
#X obj 275 369 r gyroRawWfl1;
#X obj 272 498 r gyroScaledWfl1;
#X floatatom 452 523 5 0 0 0 emgMav - -;
#X floatatom 452 573 5 0 0 0 emgMavWfl - -;
#X obj 415 129 r emgRaw1;
#X obj 452 499 r emgMav1;
#X obj 452 549 r emgMavWfl1;
#X floatatom 415 293 5 0 0 0 emg1 - -;
#X floatatom 433 313 5 0 0 0 emg2 - -;
#X floatatom 451 333 5 0 0 0 emg3 - -;
#X obj 415 271 unpack f f f f f f f f;
#X floatatom 480 293 5 0 0 0 emg4 - -;
#X floatatom 498 313 5 0 0 0 emg5 - -;
#X floatatom 517 333 5 0 0 0 emg6 - -;
#X floatatom 545 293 5 0 0 0 emg7 - -;
#X floatatom 564 313 5 0 0 0 emg8 - -;
#X obj 415 249 r emgScaled1;
#X obj 415 369 r emgScaledAbs1;
#X obj 582 497 r pose1;
#X obj 582 524 unpack f s;
#X floatatom 582 548 5 0 0 0 poseInt - -;
#X symbolatom 639 577 10 0 0 0 poseSymbol - -;
#X text 131 63 Settings:;
#X text 147 79 \$1 - Myo number;
#X text 147 89 \$2 - OSC port;
#X text 14 10 mmReceiver is a Pd patch which enables to extract OSC
messages from Myo Mapper software: http://www.balandinodidonato.com/myomapper/
;
#X floatatom 415 416 5 0 0 0 emg1 - -;
#X floatatom 433 436 5 0 0 0 emg2 - -;
#X floatatom 451 456 5 0 0 0 emg3 - -;
#X obj 415 394 unpack f f f f f f f f;
#X floatatom 480 416 5 0 0 0 emg4 - -;
#X floatatom 498 436 5 0 0 0 emg5 - -;
#X floatatom 517 456 5 0 0 0 emg6 - -;
#X floatatom 545 416 5 0 0 0 emg7 - -;
#X floatatom 564 436 5 0 0 0 emg8 - -;
#X floatatom 415 173 5 0 0 0 emg1 - -;
#X floatatom 433 193 5 0 0 0 emg2 - -;
#X floatatom 451 213 5 0 0 0 emg3 - -;
#X obj 415 151 unpack f f f f f f f f;
#X floatatom 480 173 5 0 0 0 emg4 - -;
#X floatatom 498 193 5 0 0 0 emg5 - -;
#X floatatom 517 213 5 0 0 0 emg6 - -;
#X floatatom 545 173 5 0 0 0 emg7 - -;
#X floatatom 564 193 5 0 0 0 emg8 - -;
#X obj 275 273 unpack f f f;
#X floatatom 275 295 5 0 0 0 gyroX - -;
#X floatatom 309 315 5 0 0 0 gyroY - -;
#X floatatom 344 335 5 0 0 0 gyroZ - -;
#X obj 275 393 unpack f f f;
#X floatatom 275 415 5 0 0 0 gyroX - -;
#X floatatom 309 435 5 0 0 0 gyroY - -;
#X floatatom 344 455 5 0 0 0 gyroZ - -;
#X obj 145 275 unpack f f f;
#X floatatom 145 297 5 0 0 0 accX - -;
#X floatatom 179 317 5 0 0 0 accY - -;
#X floatatom 214 337 5 0 0 0 accZ - -;
#X obj 145 391 unpack f f f;
#X floatatom 145 413 5 0 0 0 accX - -;
#X floatatom 179 433 5 0 0 0 accY - -;
#X floatatom 214 453 5 0 0 0 accZ - -;
#X obj 142 522 unpack f f f;
#X floatatom 142 544 5 0 0 0 accX - -;
#X floatatom 176 564 5 0 0 0 accY - -;
#X floatatom 211 584 5 0 0 0 accZ - -;
#X obj 14 68 mmReceive 1 5432;
#X connect 0 0 1 0;
#X connect 0 1 2 0;
#X connect 0 2 3 0;
#X connect 4 0 5 0;
#X connect 4 1 6 0;
#X connect 4 2 7 0;
#X connect 8 0 4 0;
#X connect 9 0 0 0;
#X connect 10 0 11 0;
#X connect 10 1 12 0;
#X connect 10 2 13 0;
#X connect 14 0 10 0;
#X connect 15 0 16 0;
#X connect 15 1 17 0;
#X connect 15 2 18 0;
#X connect 19 0 15 0;
#X connect 20 0 85 0;
#X connect 21 0 89 0;
#X connect 22 0 93 0;
#X connect 23 0 24 0;
#X connect 23 1 25 0;
#X connect 23 2 26 0;
#X connect 27 0 28 0;
#X connect 27 1 29 0;
#X connect 27 2 30 0;
#X connect 31 0 23 0;
#X connect 32 0 77 0;
#X connect 33 0 81 0;
#X connect 34 0 27 0;
#X connect 37 0 71 0;
#X connect 38 0 35 0;
#X connect 39 0 36 0;
#X connect 43 0 40 0;
#X connect 43 1 41 0;
#X connect 43 2 42 0;
#X connect 43 3 44 0;
#X connect 43 4 45 0;
#X connect 43 5 46 0;
#X connect 43 6 47 0;
#X connect 43 7 48 0;
#X connect 49 0 43 0;
#X connect 50 0 62 0;
#X connect 51 0 52 0;
#X connect 52 0 53 0;
#X connect 52 1 54 0;
#X connect 62 0 59 0;
#X connect 62 1 60 0;
#X connect 62 2 61 0;
#X connect 62 3 63 0;
#X connect 62 4 64 0;
#X connect 62 5 65 0;
#X connect 62 6 66 0;
#X connect 62 7 67 0;
#X connect 71 0 68 0;
#X connect 71 1 69 0;
#X connect 71 2 70 0;
#X connect 71 3 72 0;
#X connect 71 4 73 0;
#X connect 71 5 74 0;
#X connect 71 6 75 0;
#X connect 71 7 76 0;
#X connect 77 0 78 0;
#X connect 77 1 79 0;
#X connect 77 2 80 0;
#X connect 81 0 82 0;
#X connect 81 1 83 0;
#X connect 81 2 84 0;
#X connect 85 0 86 0;
#X connect 85 1 87 0;
#X connect 85 2 88 0;
#X connect 89 0 90 0;
#X connect 89 1 91 0;
#X connect 89 2 92 0;
#X connect 93 0 94 0;
#X connect 93 1 95 0;
#X connect 93 2 96 0;
