#N canvas 0 23 1322 851 24;
#X obj -562 249 ctlin 3;
#X obj -576 208 ctlin 2;
#X obj -589 168 ctlin 1;
#X obj -586 482 hsl 256 30 0 127 0 0 empty empty Accelleration_X 60
16 0 15 -1 -262144 -4034 0 1;
#X obj -573 548 hsl 256 30 0 127 0 0 empty empty Accelleration_Y 60
16 0 15 -1 -262144 -4034 0 1;
#X obj -559 618 hsl 256 30 0 127 0 0 empty empty Accelleration_Z 60
16 0 15 -1 -262144 -4034 0 1;
#X obj -316 482 hsl 256 30 0 127 0 0 empty empty Gyro_X 60 16 0 15
-1 -262144 -4034 0 1;
#X obj -303 548 hsl 256 30 0 127 0 0 empty empty Gyro_Y 60 16 0 15
-1 -262144 -4034 0 1;
#X obj -289 618 hsl 256 30 0 127 0 0 empty empty Gyro_Y 60 16 0 15
-1 -262144 -4034 0 1;
#X obj -319 168 ctlin 4;
#X obj -306 208 ctlin 5;
#X obj -292 249 ctlin 6;
#X obj -46 482 hsl 256 30 0 127 0 0 empty empty Orientation_X 60 16
0 15 -1 -262144 -4034 0 1;
#X obj -33 548 hsl 256 30 0 127 0 0 empty empty Orientation_Y 60 16
0 15 -1 -262144 -4034 0 1;
#X obj -19 618 hsl 256 30 0 127 0 0 empty empty Orientation_Z 60 16
0 15 -1 -262144 -4034 0 1;
#X obj 224 482 hsl 256 30 0 127 0 0 empty empty Yaw 60 16 0 15 -1 -262144
-4034 0 1;
#X obj 237 548 hsl 256 30 0 127 0 0 empty empty Pitch 60 16 0 15 -1
-262144 -4034 0 1;
#X obj 251 618 hsl 256 30 0 127 0 0 empty empty Roll 60 16 0 15 -1
-262144 -4034 0 1;
#X obj -49 168 ctlin 7;
#X obj -36 208 ctlin 8;
#X obj -22 249 ctlin 9;
#X obj 221 168 ctlin 10;
#X obj 234 208 ctlin 11;
#X obj 248 249 ctlin 12;
#X obj -549 296 ctlin 13;
#N canvas 0 22 407 200 rest 0;
#X obj 17 31 inlet;
#X msg 17 102 \; foo10_rcv label Pose:Rest;
#X obj 17 67 sel 127;
#X connect 0 0 2 0;
#X connect 2 0 1 0;
#X restore -549 335 pd rest;
#X obj -539 386 ctlin 14;
#X obj -279 296 ctlin 15;
#N canvas 0 22 335 181 fist 0;
#X obj 17 31 inlet;
#X msg 17 102 \; foo10_rcv label Pose:fist;
#X obj 17 67 sel 127;
#X connect 0 0 2 0;
#X connect 2 0 1 0;
#X restore -539 425 pd fist;
#N canvas 0 22 387 182 waveIn 0;
#X obj 17 31 inlet;
#X msg 17 102 \; foo10_rcv label Pose:waveIn;
#X obj 17 67 sel 127;
#X connect 0 0 2 0;
#X connect 2 0 1 0;
#X restore -279 335 pd waveIn;
#X obj -259 376 ctlin 16;
#X obj -9 296 ctlin 17;
#X obj 0 386 ctlin 18;
#X obj 268 296 ctlin 19;
#N canvas 0 23 387 184 Unknown 0;
#X obj 17 31 inlet;
#X msg 17 103 \; foo10_rcv label Pose:unknown;
#X obj 17 67 sel 127;
#X connect 0 0 2 0;
#X connect 2 0 1 0;
#X restore 268 335 pd Unknown;
#N canvas 0 23 449 171 doubleTap 0;
#X obj 17 31 inlet;
#X msg 17 102 \; foo10_rcv label Pose:doubleTap;
#X obj 17 67 sel 127;
#X connect 0 0 2 0;
#X connect 2 0 1 0;
#X restore 0 425 pd doubleTap;
#N canvas 0 22 378 180 waveOut 0;
#X obj 17 31 inlet;
#X msg 17 102 \; foo10_rcv label Pose:waveOut;
#X obj 17 67 sel 127;
#X connect 0 0 2 0;
#X connect 2 0 1 0;
#X restore -259 415 pd waveOut;
#X obj -142 704 cnv 15 290 60 foo10_snd foo10_rcv Pose:unknown 5 30
0 25 -1 -4034 0;
#X text -592 111 To know more about it \, please visit: www.balandinodidonato.com
;
#X text -591 3 "dataIn" is a patch able to receive MIDI data from the
Thalmic Myo Armband.;
#X text -163 805 Balandino Di Donato - 2015;
#X text -590 49 This patch has been developed by Balandino Di Donato
as a part of his Research \, conducted at the Integra Lab of the Birmingham
Conservatoire (Birmingham City University).;
#X floatatom -115 513 5 0 0 0 - - -;
#X floatatom -386 513 5 0 0 0 - - -;
#X floatatom -373 578 5 0 0 0 - - -;
#X floatatom -359 648 5 0 0 0 - - -;
#X floatatom -103 578 5 0 0 0 - - -;
#X floatatom -89 649 5 0 0 0 - - -;
#X floatatom 155 513 5 0 0 0 - - -;
#X floatatom 167 578 5 0 0 0 - - -;
#X floatatom 181 649 5 0 0 0 - - -;
#X floatatom 425 513 5 0 0 0 - - -;
#X floatatom 437 568 5 0 0 0 - - -;
#X floatatom 451 639 5 0 0 0 - - -;
#X text -154 832 www.balandinodidonato.com;
#N canvas 0 22 469 174 fingersSpread 0;
#X obj 17 31 inlet;
#X obj 17 67 sel 127;
#X msg 17 102 \; foo10_rcv label Pose:fingersSpread;
#X connect 0 0 1 0;
#X connect 1 0 2 0;
#X restore -9 335 pd fingersSpread;
#X connect 0 0 5 0;
#X connect 1 0 4 0;
#X connect 2 0 3 0;
#X connect 3 0 43 0;
#X connect 4 0 44 0;
#X connect 5 0 45 0;
#X connect 6 0 42 0;
#X connect 7 0 46 0;
#X connect 8 0 47 0;
#X connect 9 0 6 0;
#X connect 10 0 7 0;
#X connect 11 0 8 0;
#X connect 12 0 48 0;
#X connect 13 0 49 0;
#X connect 14 0 50 0;
#X connect 15 0 51 0;
#X connect 16 0 52 0;
#X connect 17 0 53 0;
#X connect 18 0 12 0;
#X connect 19 0 13 0;
#X connect 20 0 14 0;
#X connect 21 0 15 0;
#X connect 22 0 16 0;
#X connect 23 0 17 0;
#X connect 24 0 25 0;
#X connect 26 0 28 0;
#X connect 27 0 29 0;
#X connect 30 0 36 0;
#X connect 31 0 55 0;
#X connect 32 0 35 0;
#X connect 33 0 34 0;
#X coords 0 851 1 850 85 60 0;
