#N canvas 579 28 433 503 10;
#X text 125 470 Balandino Di Donato - 2016;
#N canvas 456 43 822 786 OSC-PAN 0;
#X obj 16 463 *~;
#X obj 66 463 *~;
#X floatatom 81 369 5 0 0 0 - - -, f 5;
#X obj 81 347 r yaw;
#X msg 81 388 \$1 24;
#X obj 81 432 -~ 1;
#X obj 16 746 dac~;
#X obj 167 428 tgl 30 0 empty empty AUDIO 2 -6 0 10 -262144 -1 -1 1
1;
#X obj 161 482 vsl 20 70 0 1 0 0 empty empty Gain -2 -10 0 10 -262144
-1 -1 5175 1;
#X obj 189 482 vsl 10 70 0 127 0 0 empty empty L 2 -10 0 10 -262144
-1 -1 1289 1;
#X obj 199 482 vsl 10 70 0 127 0 0 empty empty R 2 -10 0 10 -262144
-1 -1 3949 1;
#X obj 16 625 *~;
#X obj 66 625 *~;
#X msg 131 575 \$1 24;
#X obj 237 430 loadbang;
#X msg 237 452 0.75;
#X obj 74 650 env~;
#X obj 25 653 env~;
#X obj 16 94 t f f f f f f f f;
#X obj 16 28 r pitch;
#X obj 16 159 osc~;
#X obj 16 336 +~;
#X obj 16 51 * 300;
#X floatatom 16 73 5 0 0 0 - - -, f 5;
#X obj 131 597 line~;
#X obj 81 410 line~;
#X msg 234 582 \; pd dsp \$1;
#X obj 313 605 line~;
#X msg 313 583 \$1 40;
#X obj 241 540 t f f;
#X obj 282 539 t f f;
#X obj 241 488 sel 0;
#X msg 241 510 0;
#X msg 282 510 1;
#X obj 16 704 *~;
#X obj 66 704 *~;
#X obj 16 295 *~;
#X obj 31 183 r EMG1;
#X obj 31 205 abs;
#X obj 31 227 * 0.0078125;
#X msg 31 249 \$1 24;
#X obj 31 271 line~;
#X obj 116 159 osc~;
#X obj 116 295 *~;
#X obj 131 205 abs;
#X obj 131 227 * 0.0078125;
#X msg 131 249 \$1 24;
#X obj 131 271 line~;
#X obj 216 159 osc~;
#X obj 216 295 *~;
#X obj 231 205 abs;
#X obj 231 227 * 0.0078125;
#X msg 231 249 \$1 24;
#X obj 231 271 line~;
#X obj 316 159 osc~;
#X obj 316 295 *~;
#X obj 331 205 abs;
#X obj 331 227 * 0.0078125;
#X msg 331 249 \$1 24;
#X obj 331 271 line~;
#X obj 406 159 osc~;
#X obj 406 295 *~;
#X obj 421 205 abs;
#X obj 421 227 * 0.0078125;
#X msg 421 249 \$1 24;
#X obj 421 271 line~;
#X obj 506 159 osc~;
#X obj 506 295 *~;
#X obj 521 205 abs;
#X obj 521 227 * 0.0078125;
#X msg 521 249 \$1 24;
#X obj 521 271 line~;
#X obj 606 159 osc~;
#X obj 606 295 *~;
#X obj 621 205 abs;
#X obj 621 227 * 0.0078125;
#X msg 621 249 \$1 24;
#X obj 621 271 line~;
#X obj 706 159 osc~;
#X obj 706 295 *~;
#X obj 721 205 abs;
#X obj 721 227 * 0.0078125;
#X msg 721 249 \$1 24;
#X obj 721 271 line~;
#X obj 116 137 * 2;
#X obj 216 137 * 3;
#X obj 316 137 * 4;
#X obj 406 137 * 5;
#X obj 506 137 * 6;
#X obj 606 137 * 7;
#X obj 706 137 * 8;
#X obj 131 183 r EMG2;
#X obj 231 183 r EMG3;
#X obj 331 183 r EMG4;
#X obj 421 183 r EMG5;
#X obj 521 183 r EMG6;
#X obj 621 183 r EMG7;
#X obj 721 183 r EMG8;
#X connect 0 0 11 0;
#X connect 1 0 12 0;
#X connect 2 0 4 0;
#X connect 3 0 2 0;
#X connect 4 0 25 0;
#X connect 5 0 1 1;
#X connect 7 0 31 0;
#X connect 8 0 13 0;
#X connect 11 0 17 0;
#X connect 11 0 34 0;
#X connect 12 0 16 0;
#X connect 12 0 35 0;
#X connect 13 0 24 0;
#X connect 14 0 15 0;
#X connect 15 0 8 0;
#X connect 16 0 10 0;
#X connect 17 0 9 0;
#X connect 18 0 20 0;
#X connect 18 1 84 0;
#X connect 18 2 85 0;
#X connect 18 3 86 0;
#X connect 18 4 87 0;
#X connect 18 5 88 0;
#X connect 18 6 89 0;
#X connect 18 7 90 0;
#X connect 19 0 22 0;
#X connect 20 0 36 0;
#X connect 21 0 0 0;
#X connect 21 0 1 0;
#X connect 22 0 23 0;
#X connect 23 0 18 0;
#X connect 24 0 11 1;
#X connect 24 0 12 1;
#X connect 25 0 5 0;
#X connect 25 0 0 1;
#X connect 27 0 34 1;
#X connect 27 0 35 1;
#X connect 28 0 27 0;
#X connect 29 0 26 0;
#X connect 29 1 28 0;
#X connect 30 0 28 0;
#X connect 30 1 26 0;
#X connect 31 0 32 0;
#X connect 31 1 33 0;
#X connect 32 0 29 0;
#X connect 33 0 30 0;
#X connect 34 0 6 0;
#X connect 35 0 6 1;
#X connect 36 0 21 0;
#X connect 37 0 38 0;
#X connect 38 0 39 0;
#X connect 39 0 40 0;
#X connect 40 0 41 0;
#X connect 41 0 36 1;
#X connect 42 0 43 0;
#X connect 43 0 21 1;
#X connect 44 0 45 0;
#X connect 45 0 46 0;
#X connect 46 0 47 0;
#X connect 47 0 43 1;
#X connect 48 0 49 0;
#X connect 49 0 21 0;
#X connect 50 0 51 0;
#X connect 51 0 52 0;
#X connect 52 0 53 0;
#X connect 53 0 49 1;
#X connect 54 0 55 0;
#X connect 55 0 21 1;
#X connect 56 0 57 0;
#X connect 57 0 58 0;
#X connect 58 0 59 0;
#X connect 59 0 55 1;
#X connect 60 0 61 0;
#X connect 61 0 21 0;
#X connect 62 0 63 0;
#X connect 63 0 64 0;
#X connect 64 0 65 0;
#X connect 65 0 61 1;
#X connect 66 0 67 0;
#X connect 67 0 21 1;
#X connect 68 0 69 0;
#X connect 69 0 70 0;
#X connect 70 0 71 0;
#X connect 71 0 67 1;
#X connect 72 0 73 0;
#X connect 73 0 21 1;
#X connect 74 0 75 0;
#X connect 75 0 76 0;
#X connect 76 0 77 0;
#X connect 77 0 73 1;
#X connect 78 0 79 0;
#X connect 79 0 21 0;
#X connect 80 0 81 0;
#X connect 81 0 82 0;
#X connect 82 0 83 0;
#X connect 83 0 79 1;
#X connect 84 0 42 0;
#X connect 85 0 48 0;
#X connect 86 0 54 0;
#X connect 87 0 60 0;
#X connect 88 0 66 0;
#X connect 89 0 72 0;
#X connect 90 0 78 0;
#X connect 91 0 44 0;
#X connect 92 0 50 0;
#X connect 93 0 56 0;
#X connect 94 0 62 0;
#X connect 95 0 68 0;
#X connect 96 0 74 0;
#X connect 97 0 80 0;
#X coords 0 -1 1 1 70 160 1 150 400;
#X restore 339 169 pd OSC-PAN;
#X text 111 484 www.balandinodidonato/myomapper;
#X text 13 71 Instructions:;
#X text 20 101 - Lunch MyoMapper;
#X text 20 87 - Lunch Myo Connect;
#X text 20 116 - Turn on the MyoReceiver;
#X text 20 130 - Turn on OSC-PAN;
#X obj 12 169 MyoReceiver;
#X text 20 143 - ENJOY!!!;
#X text 14 29 A simple example of how you can control 8 oscilators'
frequency \, aplitude and stereo panning using the Myo amrband and
MyoMapper.;
#X text 17 5 MyoReceiver;
