#N canvas 158 71 1022 559 10;
#X text 399 177 Myo Mapper Receiver/Sender Here a patch to get started
getting Thalmic's Myo armband (www.myo.com) into Pd using Myo Mapper
(www.balandinodidonato.com/myomapper).;
#X obj 8 178 oscparse;
#X obj 8 200 list trim;
#X obj 8 248 route myo1;
#X floatatom 8 74 6 0 0 1 OSC_Port_Receiver - -, f 6;
#X msg 8 50 5432;
#X obj 94 218 spigot;
#X obj 157 74 tgl 15 0 empty empty PRINT_MYO_DATA 17 7 0 10 -262144
-1 -1 0 1;
#X obj 8 25 r init;
#X obj 157 31 r init;
#X msg 157 53 1;
#X obj 8 156 netreceive -u -b;
#X msg 8 134 listen \$1;
#X obj 8 307 route raw scaled, f 23;
#X obj 156 306 route mav wl;
#X obj 94 247 print MyoData;
#X obj 75 495 outlet;
#X obj 8 491 outlet;
#X obj 156 494 outlet;
#X obj 206 494 outlet;
#X obj 605 494 outlet;
#X obj 696 494 outlet;
#X obj 806 494 outlet;
#X text 8 94 EMGs;
#X text 53 94 EMGs;
#X text 48 105 scaled;
#X obj 74 25 loadbang;
#X text 115 94 EMGs;
#X text 118 105 mav;
#X text 158 105 MAV's WFL;
#X text 170 94 EMGs;
#X obj 8 285 route EMG EMGs orientation acceleration gyro pose all
allEMG, f 152;
#X obj 393 308 route raw wl;
#X obj 479 308 route raw wl;
#X obj 403 495 outlet;
#X obj 453 495 outlet;
#X obj 503 495 outlet;
#X obj 553 495 outlet;
#X obj 253 307 route scaled raw wl;
#X obj 253 494 outlet;
#X obj 303 494 outlet;
#X obj 353 494 outlet;
#X text 388 104 WFL;
#X text 294 94 ORIENTATION;
#X text 245 104 Scaled;
#X text 317 104 Raw;
#X text 533 104 WFL;
#X text 459 104 Raw;
#X text 466 94 ACCELERATION;
#X text 662 104 WFL;
#X text 588 104 Raw;
#X text 620 94 GYRO;
#X text 722 101 POSE;
#X text 855 101 ALL;
#X text 781 101 ALL-EMG;
#N canvas 0 22 732 299 scale 1;
#X obj 77 47 inlet;
#X obj 77 69 unpack f f f f f f f f, f 59;
#X obj 77 91 + 127;
#X obj 77 113 * 0.5;
#X obj 77 135 int;
#X obj 127 91 + 127;
#X obj 127 113 * 0.5;
#X obj 127 135 int;
#X obj 177 91 + 127;
#X obj 177 113 * 0.5;
#X obj 177 135 int;
#X obj 227 91 + 127;
#X obj 227 113 * 0.5;
#X obj 227 135 int;
#X obj 277 91 + 127;
#X obj 277 113 * 0.5;
#X obj 277 135 int;
#X obj 327 91 + 127;
#X obj 327 113 * 0.5;
#X obj 327 135 int;
#X obj 377 91 + 127;
#X obj 377 113 * 0.5;
#X obj 377 135 int;
#X obj 428 91 + 127;
#X obj 428 113 * 0.5;
#X obj 428 135 int;
#X obj 77 157 pack f f f f f f f f, f 59;
#X connect 0 0 1 0;
#X connect 1 0 2 0;
#X connect 1 1 5 0;
#X connect 1 2 8 0;
#X connect 1 3 11 0;
#X connect 1 4 14 0;
#X connect 1 5 17 0;
#X connect 1 6 20 0;
#X connect 1 7 23 0;
#X connect 2 0 3 0;
#X connect 3 0 4 0;
#X connect 4 0 26 0;
#X connect 5 0 6 0;
#X connect 6 0 7 0;
#X connect 7 0 26 1;
#X connect 8 0 9 0;
#X connect 9 0 10 0;
#X connect 10 0 26 2;
#X connect 11 0 12 0;
#X connect 12 0 13 0;
#X connect 13 0 26 3;
#X connect 14 0 15 0;
#X connect 15 0 16 0;
#X connect 16 0 26 4;
#X connect 17 0 18 0;
#X connect 18 0 19 0;
#X connect 19 0 26 5;
#X connect 20 0 21 0;
#X connect 21 0 22 0;
#X connect 22 0 26 6;
#X connect 23 0 24 0;
#X connect 24 0 25 0;
#X connect 25 0 26 7;
#X restore 8 329 pd scale;
#X connect 1 0 2 0;
#X connect 2 0 3 0;
#X connect 2 0 6 0;
#X connect 3 0 31 0;
#X connect 4 0 12 0;
#X connect 5 0 4 0;
#X connect 6 0 15 0;
#X connect 7 0 6 1;
#X connect 8 0 5 0;
#X connect 9 0 10 0;
#X connect 10 0 7 0;
#X connect 11 0 1 0;
#X connect 12 0 11 0;
#X connect 13 1 16 0;
#X connect 14 0 18 0;
#X connect 14 1 19 0;
#X connect 26 0 5 0;
#X connect 31 0 13 0;
#X connect 31 1 14 0;
#X connect 31 2 38 0;
#X connect 31 3 32 0;
#X connect 31 4 33 0;
#X connect 31 5 20 0;
#X connect 31 6 21 0;
#X connect 31 7 22 0;
#X connect 32 0 34 0;
#X connect 32 1 35 0;
#X connect 33 0 36 0;
#X connect 33 1 37 0;
#X connect 38 0 39 0;
#X connect 38 1 40 0;
#X connect 38 2 41 0;
#X coords 0 -1 1 1 877 70 1 2 50;
