#N canvas 430 70 1022 559 10;
#X obj 503 172 unpack 0 0 0;
#X obj 503 194 vsl 15 128 0 1 0 0 empty empty yaw 0 140 0 10 -262144
-1 -1 6228 1;
#X obj 537 194 vsl 15 128 0 1 0 0 empty empty pitch 0 140 0 10 -262144
-1 -1 6296 1;
#X obj 572 194 vsl 15 128 0 1 0 0 empty empty roll 0 140 0 10 -262144
-1 -1 6323 1;
#X obj 653 172 unpack 0 0 0;
#X obj 653 194 vsl 15 128 -3.14159 3.14159 0 0 empty empty x 0 140
0 10 -262144 -1 -1 6577 1;
#X obj 687 194 vsl 15 128 -3.14159 3.14159 0 0 empty empty y 0 140
0 10 -262144 -1 -1 7341 1;
#X obj 722 194 vsl 15 128 -3.14159 3.14159 0 0 empty empty z 0 140
0 10 -262144 -1 -1 7992 1;
#X text 488 341 ORIENTATION (Scaled 0-1);
#X text 650 341 ACCELERATION (raw);
#X obj 183 172 unpack 0 0 0 0 0 0 0 0;
#X obj 183 194 vsl 15 128 0 1 0 0 empty empty 1 0 140 0 10 -262144
-1 -1 1290 1;
#X obj 203 194 vsl 15 128 0 1 0 0 empty empty 2 0 140 0 10 -262144
-1 -1 298 1;
#X obj 223 194 vsl 15 128 0 1 0 0 empty empty 3 0 140 0 10 -262144
-1 -1 397 1;
#X obj 243 194 vsl 15 128 0 1 0 0 empty empty 4 0 140 0 10 -262144
-1 -1 198 1;
#X obj 263 194 vsl 15 128 0 1 0 0 empty empty 5 0 140 0 10 -262144
-1 -1 1191 1;
#X obj 283 194 vsl 15 128 0 1 0 0 empty empty 6 0 140 0 10 -262144
-1 -1 794 1;
#X obj 303 194 vsl 15 128 0 1 0 0 empty empty 7 0 140 0 10 -262144
-1 -1 198 1;
#X obj 323 194 vsl 15 128 0 1 0 0 empty empty 8 0 140 0 10 -262144
-1 -1 198 1;
#X obj 13 172 unpack 0 0 0 0 0 0 0 0;
#X obj 13 194 vsl 15 128 -127 128 0 0 empty empty 1 0 140 0 10 -262144
-1 -1 6973 1;
#X obj 33 194 vsl 15 128 -127 128 0 0 empty empty 2 0 140 0 10 -262144
-1 -1 6176 1;
#X obj 53 194 vsl 15 128 -127 128 0 0 empty empty 3 0 140 0 10 -262144
-1 -1 6126 1;
#X obj 73 194 vsl 15 128 -127 128 0 0 empty empty 4 0 140 0 10 -262144
-1 -1 6425 1;
#X obj 93 194 vsl 15 128 -127 127 0 0 empty empty 5 0 140 0 10 -262144
-1 -1 5750 1;
#X obj 113 194 vsl 15 128 -127 128 0 0 empty empty 6 0 140 0 10 -262144
-1 -1 5927 1;
#X obj 133 194 vsl 15 128 -127 128 0 0 empty empty 7 0 140 0 10 -262144
-1 -1 6425 1;
#X obj 153 194 vsl 15 128 -127 128 0 0 empty empty 8 0 140 0 10 -262144
-1 -1 6425 1;
#X text 38 341 EMG RAW (-127 \, 128);
#X text 196 341 EMG DATA (Scaled: 0 \, 1);
#X obj 363 172 unpack 0 0 0;
#X obj 363 194 vsl 15 128 -3.14159 3.14159 0 0 empty empty yaw 0 140
0 10 -262144 -1 -1 5651 1;
#X obj 397 194 vsl 15 128 -3.14159 3.14159 0 0 empty empty pitch 0
140 0 10 -262144 -1 -1 6089 1;
#X obj 432 194 vsl 15 128 -3.14159 3.14159 0 0 empty empty roll 0 140
0 10 -262144 -1 -1 7475 1;
#X obj 783 172 unpack 0 0 0;
#X obj 783 194 vsl 15 128 -1000 1000 0 0 empty empty x 0 140 0 10 -262144
-1 -1 6386 1;
#X obj 817 194 vsl 15 128 -1000 1000 0 0 empty empty y 0 140 0 10 -262144
-1 -1 6351 1;
#X obj 852 194 vsl 15 128 -1000 1000 0 0 empty empty z 0 140 0 10 -262144
-1 -1 6362 1;
#X text 780 341 Gyro (raw);
#X obj 883 172 unpack 0 s;
#X text 890 231 Pose;
#X obj 940 193 print pose;
#X floatatom 883 194 5 0 0 0 - - -, f 5;
#N canvas 85 23 287 444 YAW 0;
#X obj 33 342 s osc;
#X obj 36 84 hsl 128 15 -1 2 0 0 empty empty Set_Min 0 -8 0 10 -262144
-1 -1 4233 1;
#X floatatom 33 100 5 0 0 2 - - -, f 5;
#X obj 36 134 hsl 128 15 -1 2 0 0 empty empty Set_Max 0 -8 0 10 -262144
-1 -1 8467 1;
#X floatatom 33 150 5 0 0 2 - - -, f 5;
#X obj 33 45 bng 15 250 50 0 empty empty Centre 17 7 0 10 -262144 -1
-1;
#X obj 111 45 tgl 15 0 empty empty Reverse 17 7 0 10 -262144 -1 -1
0 1;
#X obj 209 25 r init;
#X msg 209 69 0;
#X obj 209 47 t b b;
#X obj 209 91 t i i;
#X msg 238 69 1;
#X msg 33 200 send /myo1/yaw/centre centre;
#X msg 83 223 send /myo1/yaw/reverse \$1;
#X msg 93 253 send /myo1/yaw/setMin \$1;
#X msg 103 283 send /myo1/yaw/setMax \$1;
#X msg 113 313 send /myo1/yaw/setMax \$1;
#X connect 1 0 2 0;
#X connect 2 0 14 0;
#X connect 3 0 4 0;
#X connect 4 0 15 0;
#X connect 4 0 16 0;
#X connect 5 0 12 0;
#X connect 6 0 13 0;
#X connect 7 0 9 0;
#X connect 8 0 10 0;
#X connect 9 0 8 0;
#X connect 9 1 11 0;
#X connect 10 0 6 0;
#X connect 10 1 1 0;
#X connect 11 0 3 0;
#X connect 12 0 0 0;
#X connect 13 0 0 0;
#X connect 14 0 0 0;
#X connect 15 0 0 0;
#X connect 16 0 0 0;
#X coords 0 -1 1 1 150 150 1 25 25;
#X restore 9 400 pd YAW;
#X text 7 378 MESSAGES TO MYO MAPPER;
#X text 14 90 MESSAGES FROM MYO MAPPER;
#N canvas 109 22 430 268 VIBRATE 0;
#X obj 37 222 s osc;
#X obj 35 60 bng 15 250 50 0 empty empty Short 17 7 0 10 -262144 -1
-1;
#X obj 35 100 bng 15 250 50 0 empty empty Medium 17 7 0 10 -262144
-1 -1;
#X obj 35 140 bng 15 250 50 0 empty empty Long 17 7 0 10 -262144 -1
-1;
#X obj 131 89 symbol short;
#X obj 131 119 symbol medium;
#X obj 131 159 symbol long;
#X msg 232 191 send /myo/2/vibrate \$1;
#X msg 37 193 send /myo1/vibrate \$1;
#X connect 1 0 4 0;
#X connect 2 0 5 0;
#X connect 3 0 6 0;
#X connect 4 0 8 0;
#X connect 4 0 7 0;
#X connect 5 0 8 0;
#X connect 6 0 8 0;
#X connect 7 0 0 0;
#X connect 8 0 0 0;
#X coords 0 -1 1 1 100 150 1 25 25;
#X restore 651 400 pd VIBRATE;
#N canvas 0 22 281 387 PITCH 0;
#X obj 33 342 s osc;
#X obj 36 84 hsl 128 15 -1 2 0 0 empty empty Set_Min 0 -8 0 10 -262144
-1 -1 4233 1;
#X floatatom 33 100 5 0 0 2 - - -, f 5;
#X obj 36 134 hsl 128 15 -1 2 0 0 empty empty Set_Max 0 -8 0 10 -262144
-1 -1 8467 1;
#X floatatom 33 150 5 0 0 2 - - -, f 5;
#X obj 33 45 bng 15 250 50 0 empty empty Centre 17 7 0 10 -262144 -1
-1;
#X obj 111 45 tgl 15 0 empty empty Reverse 17 7 0 10 -262144 -1 -1
0 1;
#X obj 209 25 r init;
#X msg 209 69 0;
#X obj 209 47 t b b;
#X obj 209 91 t i i;
#X msg 238 69 1;
#X msg 33 193 send /myo1/pitch/centre centre;
#X msg 83 223 send /myo1/pitch/reverse \$1;
#X msg 93 253 send /myo1/pitch/setMin \$1;
#X msg 103 283 send /myo1/pitch/setMax \$1;
#X connect 1 0 2 0;
#X connect 2 0 14 0;
#X connect 3 0 4 0;
#X connect 4 0 15 0;
#X connect 5 0 12 0;
#X connect 6 0 13 0;
#X connect 7 0 9 0;
#X connect 8 0 10 0;
#X connect 9 0 8 0;
#X connect 9 1 11 0;
#X connect 10 0 6 0;
#X connect 10 1 1 0;
#X connect 11 0 3 0;
#X connect 12 0 0 0;
#X connect 13 0 0 0;
#X connect 14 0 0 0;
#X connect 15 0 0 0;
#X coords 0 -1 1 1 150 150 1 25 25;
#X restore 169 400 pd PITCH;
#N canvas 0 22 316 387 ROLL 0;
#X obj 33 342 s osc;
#X obj 36 84 hsl 128 15 -1 2 0 0 empty empty Set_Min 0 -8 0 10 -262144
-1 -1 4233 1;
#X floatatom 33 100 5 0 0 2 - - -, f 5;
#X obj 36 134 hsl 128 15 -1 2 0 0 empty empty Set_Max 0 -8 0 10 -262144
-1 -1 8467 1;
#X floatatom 33 150 5 0 0 2 - - -, f 5;
#X obj 33 45 bng 15 250 50 0 empty empty Centre 17 7 0 10 -262144 -1
-1;
#X obj 111 45 tgl 15 0 empty empty Reverse 17 7 0 10 -262144 -1 -1
0 1;
#X obj 209 25 r init;
#X msg 209 69 0;
#X obj 209 47 t b b;
#X obj 209 91 t i i;
#X msg 238 69 1;
#X msg 33 193 send /myo1/roll/centre centre;
#X msg 83 223 send /myo1/roll/reverse \$1;
#X msg 93 253 send /myo1/roll/setMin \$1;
#X msg 103 283 send /myo1/roll/setMax \$1;
#X connect 1 0 2 0;
#X connect 2 0 14 0;
#X connect 3 0 4 0;
#X connect 4 0 15 0;
#X connect 5 0 12 0;
#X connect 6 0 13 0;
#X connect 7 0 9 0;
#X connect 8 0 10 0;
#X connect 9 0 8 0;
#X connect 9 1 11 0;
#X connect 10 0 6 0;
#X connect 10 1 1 0;
#X connect 11 0 3 0;
#X connect 12 0 0 0;
#X connect 13 0 0 0;
#X connect 14 0 0 0;
#X connect 15 0 0 0;
#X coords 0 -1 1 1 150 150 1 25 25;
#X restore 329 400 pd ROLL;
#N canvas 0 22 281 387 MAV 0;
#X obj 33 342 s osc;
#X obj 36 84 hsl 128 15 -1 2 0 0 empty empty Set_Min 0 -8 0 10 -262144
-1 -1 4233 1;
#X floatatom 33 100 5 0 0 2 - - -, f 5;
#X obj 36 134 hsl 128 15 -1 2 0 0 empty empty Set_Max 0 -8 0 10 -262144
-1 -1 8467 1;
#X floatatom 33 150 5 0 0 2 - - -, f 5;
#X obj 33 45 bng 15 250 50 0 empty empty Centre 17 7 0 10 -262144 -1
-1;
#X obj 111 45 tgl 15 0 empty empty Reverse 17 7 0 10 -262144 -1 -1
0 1;
#X obj 209 25 r init;
#X msg 209 69 0;
#X obj 209 47 t b b;
#X obj 209 91 t i i;
#X msg 238 69 1;
#X msg 33 193 send /myo1/mav/centre centre;
#X msg 83 223 send /myo1/mav/reverse \$1;
#X msg 93 253 send /myo1/mav/setMin \$1;
#X msg 103 283 send /myo1/mav/setMax \$1;
#X connect 1 0 2 0;
#X connect 2 0 14 0;
#X connect 3 0 4 0;
#X connect 4 0 15 0;
#X connect 5 0 12 0;
#X connect 6 0 13 0;
#X connect 7 0 9 0;
#X connect 8 0 10 0;
#X connect 9 0 8 0;
#X connect 9 1 11 0;
#X connect 10 0 6 0;
#X connect 10 1 1 0;
#X connect 11 0 3 0;
#X connect 12 0 0 0;
#X connect 13 0 0 0;
#X connect 14 0 0 0;
#X connect 15 0 0 0;
#X coords 0 -1 1 1 150 150 1 25 25;
#X restore 489 400 pd MAV;
#N canvas 859 112 450 300 oscSender 0;
#X obj 106 163 tgl 15 0 empty empty Status_Connection 17 7 0 10 -262144
-1 -1 1 1;
#X msg 166 247 disconnect;
#X obj 105 30 r init;
#X obj 9 86 r osc;
#X msg 159 224 connect 127.0.0.1 \$1;
#X msg 105 52 5431;
#X floatatom 105 84 5 0 0 1 Port - -, f 5;
#X obj 105 127 tgl 15 0 empty empty Connect/Disconnect 17 7 0 10 -262144
-1 -1 5431 1;
#X obj 188 185 sel 1 0;
#X obj 105 103 t 1 i;
#X obj 9 278 netsend -u -b;
#N canvas 589 107 671 470 packOSC 0;
#X obj 189 58 route send;
#X obj 189 27 inlet;
#X obj 189 94 list split 1;
#X obj 246 300 list;
#X obj 195 438 outlet;
#X obj 195 381 list prepend send;
#X obj 195 408 list trim;
#X obj 195 343 oscformat;
#X msg 189 138 set \$1;
#X obj 189 242 t b a;
#X connect 0 0 2 0;
#X connect 1 0 0 0;
#X connect 2 0 8 0;
#X connect 2 1 3 1;
#X connect 3 0 7 0;
#X connect 5 0 6 0;
#X connect 6 0 4 0;
#X connect 7 0 5 0;
#X connect 8 0 9 0;
#X connect 9 0 3 0;
#X connect 9 1 7 0;
#X restore 9 125 pd packOSC;
#X connect 1 0 10 0;
#X connect 2 0 5 0;
#X connect 3 0 11 0;
#X connect 4 0 10 0;
#X connect 5 0 6 0;
#X connect 6 0 9 0;
#X connect 7 0 8 0;
#X connect 8 0 4 0;
#X connect 8 1 1 0;
#X connect 9 0 7 0;
#X connect 9 1 4 0;
#X connect 10 0 0 0;
#X connect 11 0 10 0;
#X coords 0 -1 1 1 140 150 1 100 50;
#X restore 759 400 pd oscSender;
#N canvas 444 36 931 342 from_Myo_Mapper 0;
#X obj 6 137 oscparse;
#X obj 6 159 list trim;
#X obj 6 207 route myo1;
#X obj 92 206 print myo data;
#X floatatom 6 73 6 0 0 1 OSC_Port_Receiver - -, f 6;
#X msg 6 49 5432;
#X obj 6 229 route emgRaw emgScaled orientationRaw orientationScaled
acceleration gyro pose;
#X obj 92 177 spigot;
#X obj 155 73 tgl 15 0 empty empty PRINT_MYO_DATA 17 7 0 10 -262144
-1 -1 1 1;
#X obj 6 24 r init;
#X obj 155 30 r init;
#X msg 155 52 1;
#X obj 6 272 outlet;
#X obj 56 272 outlet;
#X obj 108 272 outlet;
#X obj 158 272 outlet;
#X obj 209 272 outlet;
#X obj 260 272 outlet;
#X obj 310 272 outlet;
#X obj 6 115 netreceive -u -b;
#X msg 6 93 listen \$1;
#X connect 0 0 1 0;
#X connect 1 0 2 0;
#X connect 1 0 7 0;
#X connect 2 0 6 0;
#X connect 4 0 20 0;
#X connect 5 0 4 0;
#X connect 6 0 12 0;
#X connect 6 1 13 0;
#X connect 6 2 14 0;
#X connect 6 3 15 0;
#X connect 6 4 16 0;
#X connect 6 5 17 0;
#X connect 6 6 18 0;
#X connect 7 0 3 0;
#X connect 8 0 7 1;
#X connect 9 0 5 0;
#X connect 10 0 11 0;
#X connect 11 0 8 0;
#X connect 19 0 0 0;
#X connect 20 0 19 0;
#X coords 0 -1 1 1 877 40 1 2 50;
#X restore 13 115 pd from_Myo_Mapper;
#X obj 910 425 s init;
#X obj 910 400 loadbang;
#X text 348 341 ORIENTATION (-PI \, +PI);
#X text 11 6 Myo Mapper Receiver/Sender Here a patch to get started
getting Thalmic's Myo armband (www.myo.com) into Pd using Myo Mapper
(www.balandinodidonato.com/myomapper).;
#X connect 0 0 1 0;
#X connect 0 1 2 0;
#X connect 0 2 3 0;
#X connect 4 0 5 0;
#X connect 4 1 6 0;
#X connect 4 2 7 0;
#X connect 10 0 11 0;
#X connect 10 1 12 0;
#X connect 10 2 13 0;
#X connect 10 3 14 0;
#X connect 10 4 15 0;
#X connect 10 5 16 0;
#X connect 10 6 17 0;
#X connect 10 7 18 0;
#X connect 19 0 20 0;
#X connect 19 1 21 0;
#X connect 19 2 22 0;
#X connect 19 3 23 0;
#X connect 19 4 24 0;
#X connect 19 5 25 0;
#X connect 19 6 26 0;
#X connect 19 7 27 0;
#X connect 30 0 31 0;
#X connect 30 1 32 0;
#X connect 30 2 33 0;
#X connect 34 0 35 0;
#X connect 34 1 36 0;
#X connect 34 2 37 0;
#X connect 39 0 42 0;
#X connect 39 1 41 0;
#X connect 51 0 19 0;
#X connect 51 1 10 0;
#X connect 51 2 30 0;
#X connect 51 3 0 0;
#X connect 51 4 4 0;
#X connect 51 5 34 0;
#X connect 51 6 39 0;
#X connect 53 0 52 0;
