#N canvas 132 62 1042 660 10;
#X obj 187 159 unpackOSC;
#X obj 187 135 spigot;
#X obj 271 280 tgl 25 0 empty empty empty 17 7 0 10 -262144 -1 -1 0
1;
#X text 272 265 ON/OFF;
#X obj 36 254 r emg;
#X obj 36 276 unpack 0 0 0 0 0 0 0 0;
#X floatatom 272 313 10 0 0 0 EMG1 - EMG1, f 10;
#X floatatom 272 333 10 0 0 0 EMG2 - EMG2, f 10;
#X floatatom 272 353 10 0 0 0 EMG3 - EMG3, f 10;
#X floatatom 272 373 10 0 0 0 EMG4 - EMG4, f 10;
#X floatatom 272 394 10 0 0 0 EMG5 - EMG5, f 10;
#X floatatom 273 416 10 0 0 0 EMG6 - EMG6, f 10;
#X floatatom 273 436 10 0 0 0 EMG7 - EMG7, f 10;
#X floatatom 273 458 10 0 0 0 EMG8 - EMG8, f 10;
#X obj 537 276 r gyro;
#X obj 534 337 r acc;
#X obj 528 398 r orientation;
#X floatatom 274 478 10 0 0 0 MAV mav -, f 10;
#X floatatom 382 313 10 0 0 0 gyroX - gyroX, f 10;
#X floatatom 382 333 10 0 0 0 gyroY - gyroY, f 10;
#X floatatom 382 353 10 0 0 0 gyroZ - gyroZ, f 10;
#X floatatom 382 373 10 0 0 0 accX - accX, f 10;
#X floatatom 382 394 10 0 0 0 accY - accY, f 10;
#X floatatom 383 416 10 0 0 0 accZ - accZ, f 10;
#X floatatom 383 436 10 0 0 0 yaw - yaw, f 10;
#X floatatom 383 458 10 0 0 0 pitch - pitch, f 10;
#X floatatom 384 478 10 0 0 0 roll - roll, f 10;
#X obj 537 298 unpack 0 0 0;
#X obj 534 359 unpack 0 0 0;
#X obj 528 420 unpack 0 0 0;
#X floatatom 381 293 10 0 0 0 poseI - poseI, f 10;
#X obj 814 582 outlet;
#X obj 864 582 outlet;
#X obj 606 582 outlet;
#X obj 649 582 outlet;
#X obj 694 582 outlet;
#X obj 932 582 outlet;
#X obj 187 206 s emg;
#X obj 288 206 s gyro;
#X obj 338 206 s acc;
#X obj 389 206 s orientation;
#X obj 451 582 outlet;
#X obj 497 582 outlet;
#X text 246 511 EMG;
#X text 446 511 GYRO;
#X text 200 524 1;
#X text 215 524 2;
#X text 247 524 4;
#X text 231 524 3;
#X text 264 524 5;
#X text 280 524 6;
#X text 296 524 7;
#X text 312 524 8;
#X text 441 524 X;
#X text 457 524 Y;
#X text 473 524 Z;
#X text 393 524 X;
#X text 409 524 Y;
#X text 425 524 Z;
#X text 402 511 ACC;
#X text 344 511 ORIENT;
#X text 344 524 Y;
#X text 360 524 P;
#X text 376 524 R;
#X text 490 475 P;
#X text 490 486 O;
#X text 490 496 S;
#X text 327 504 M;
#X text 327 515 A;
#X text 327 525 V;
#X obj 187 182 routeOSC /emg /emgMav /gyro /acc /orientation /pose
;
#X obj 483 206 unpack s 0;
#X obj 483 228 s poseSymb;
#X obj 451 560 r yaw;
#X obj 497 560 r pitch;
#X obj 546 560 r roll;
#X obj 546 582 outlet;
#X obj 982 582 outlet;
#X obj 932 560 r poseS;
#X obj 982 560 r poseI;
#X obj 694 560 r accZ;
#X obj 649 560 r accY;
#X obj 606 560 r accX;
#X obj 864 560 r gyroZ;
#X obj 814 560 r gyroY;
#X obj 764 560 r gyroX;
#X obj 764 582 outlet;
#X obj 237 206 s mav;
#X obj 11 560 r EMG1;
#X obj 11 582 outlet;
#X obj 56 582 outlet;
#X obj 101 582 outlet;
#X obj 145 582 outlet;
#X obj 189 582 outlet;
#X obj 233 582 outlet;
#X obj 56 560 r EMG2;
#X obj 101 560 r EMG3;
#X obj 145 560 r EMG4;
#X obj 189 560 r EMG5;
#X obj 233 560 r EMG6;
#X obj 277 582 outlet;
#X obj 322 582 outlet;
#X obj 277 560 r EMG7;
#X obj 322 560 r EMG8;
#X text 490 506 E;
#X text 490 524 S;
#X text 505 475 P;
#X text 505 486 O;
#X text 505 496 S;
#X text 505 506 E;
#X text 505 524 I;
#X obj 187 112 udpreceive 5432;
#X obj 384 560 r mav;
#X obj 384 582 outlet;
#X text 399 617 Balandino Di Donato - 2016;
#X text 369 632 www.balandinodidonato.com/myomapper;
#X text 11 7 MyoReceiver is a pd patch which receive and unpack OSC
messages from the MyoMapper. (www.balandinodidonato.com/myomapper)
;
#X obj 187 66 inlet;
#X obj 187 89 prepend port;
#X connect 0 0 70 0;
#X connect 1 0 0 0;
#X connect 2 0 1 1;
#X connect 4 0 5 0;
#X connect 5 0 6 0;
#X connect 5 1 7 0;
#X connect 5 2 8 0;
#X connect 5 3 9 0;
#X connect 5 4 10 0;
#X connect 5 5 11 0;
#X connect 5 6 12 0;
#X connect 5 7 13 0;
#X connect 14 0 27 0;
#X connect 15 0 28 0;
#X connect 16 0 29 0;
#X connect 27 0 18 0;
#X connect 27 1 19 0;
#X connect 27 2 20 0;
#X connect 28 0 21 0;
#X connect 28 1 22 0;
#X connect 28 2 23 0;
#X connect 29 0 24 0;
#X connect 29 1 25 0;
#X connect 29 2 26 0;
#X connect 70 0 37 0;
#X connect 70 1 87 0;
#X connect 70 2 38 0;
#X connect 70 3 39 0;
#X connect 70 4 40 0;
#X connect 70 5 71 0;
#X connect 71 0 72 0;
#X connect 71 1 30 0;
#X connect 73 0 41 0;
#X connect 74 0 42 0;
#X connect 75 0 76 0;
#X connect 78 0 36 0;
#X connect 79 0 77 0;
#X connect 80 0 35 0;
#X connect 81 0 34 0;
#X connect 82 0 33 0;
#X connect 83 0 32 0;
#X connect 84 0 31 0;
#X connect 85 0 86 0;
#X connect 88 0 89 0;
#X connect 95 0 90 0;
#X connect 96 0 91 0;
#X connect 97 0 92 0;
#X connect 98 0 93 0;
#X connect 99 0 94 0;
#X connect 102 0 100 0;
#X connect 103 0 101 0;
#X connect 111 0 1 0;
#X connect 112 0 113 0;
#X connect 117 0 118 0;
#X connect 118 0 111 0;
#X coords 0 -1 1 1 315 290 1 200 250;
