#N canvas 366 346 841 270 10;
#N canvas 0 22 211 271 oscReceiver 1;
#X obj 14 148 oscparse;
#X obj 14 170 list trim;
#X obj 14 126 netreceive -u -b;
#X obj 14 38 loadbang;
#X msg 14 104 listen \$1;
#X floatatom 14 83 5 0 0 1 OSC_port - -, f 5;
#X obj 14 192 outlet;
#X obj 14 60 i 12000;
#X obj 95 52 bng 15 250 50 0 empty empty empty 17 7 0 10 -262144 -1
-1;
#X connect 0 0 1 0;
#X connect 1 0 6 0;
#X connect 2 0 0 0;
#X connect 3 0 7 0;
#X connect 4 0 2 0;
#X connect 5 0 4 0;
#X connect 7 0 5 0;
#X connect 8 0 7 0;
#X restore 418 19 pd oscReceiver;
#X obj 418 84 unpack 0 0 0 0 0 0 0 0 0 0, f 30;
#X obj 418 105 s 1-f;
#X obj 437 125 s 1-amp;
#X obj 486 125 s 2-amp;
#X obj 496 105 s 3-f;
#X obj 536 125 s 3-amp;
#X obj 457 105 s 2-f;
#X obj 575 218 dac~ 1 2;
#X obj 420 167 osc 1 100 2;
#X obj 420 188 *~ 0.1;
#X obj 536 105 s 4-f;
#X obj 586 125 s 4-amp;
#X obj 576 105 s 5-f;
#X obj 636 125 s 5-amp;
#X obj 500 188 *~ 0.1;
#X obj 500 167 osc 2 200 2;
#X obj 580 188 *~ 0.1;
#X obj 660 188 *~ 0.1;
#X obj 580 167 osc 3 400 2;
#X obj 660 167 osc 4 500 2;
#X obj 740 188 *~ 0.1;
#X obj 740 167 osc 5 1000 2;
#X obj 418 43 route wek;
#X obj 418 63 route outputs;
#X text 15 5 Using Myo Mapper with Wekinator;
#X text 14 20 This example shows how to control ontrolling a bank of
oscillator using the Myo armband and Wekinator.;
#X text 14 46 1 - Launch Myo Connect;
#X text 14 60 2 - Connect Myo;
#X text 14 74 3 - Launch Myo Mapper (http://www.balandinodidonato.com/myomapper/)
;
#X text 13 99 4 - Select Acceleromenter Raw data as features;
#X text 13 112 5 - Launch Wekinator (http://www.wekinator.org/);
#X text 13 126 6 - Type /myo1 in 'Input OSC message' \, and 3 in '#
inputs';
#X text 13 140 7 - Type 10 in '# outputs';
#X text 13 154 8 - Click on 'Randomize' in Wekinator to generate random
audio proccessing settings or refine them using the sliders;
#X text 13 177 9 - Chose different arm poses and start recording Myo
data in Wekinator;
#X text 11 204 10 - Train the model;
#X text 11 219 11 - Run Wekinator;
#X text 11 234 12 - Enjoy!;
#X connect 0 0 23 0;
#X connect 1 0 2 0;
#X connect 1 1 3 0;
#X connect 1 2 7 0;
#X connect 1 3 4 0;
#X connect 1 4 5 0;
#X connect 1 5 6 0;
#X connect 1 6 11 0;
#X connect 1 7 12 0;
#X connect 1 8 13 0;
#X connect 1 9 14 0;
#X connect 9 0 10 0;
#X connect 10 0 8 0;
#X connect 10 0 8 1;
#X connect 15 0 8 0;
#X connect 15 0 8 1;
#X connect 16 0 15 0;
#X connect 17 0 8 0;
#X connect 17 0 8 1;
#X connect 18 0 8 0;
#X connect 18 0 8 1;
#X connect 19 0 17 0;
#X connect 20 0 18 0;
#X connect 21 0 8 0;
#X connect 21 0 8 1;
#X connect 22 0 21 0;
#X connect 23 0 24 0;
#X connect 24 0 1 0;
