#N canvas 473 118 138 350 10;
#X obj 31 91 + \$2;
#X obj 31 112 * \$3;
#X msg 31 133 \$1 20;
#X obj 31 69 r \$1-f;
#X obj 31 175 osc~;
#X obj 31 266 *~;
#X obj 31 154 vline~;
#X obj 46 201 r \$1-amp;
#X msg 46 222 \$1 20;
#X obj 46 243 vline~;
#X obj 31 287 outlet~;
#X connect 0 0 1 0;
#X connect 1 0 2 0;
#X connect 2 0 6 0;
#X connect 3 0 0 0;
#X connect 4 0 5 0;
#X connect 5 0 10 0;
#X connect 6 0 4 0;
#X connect 7 0 8 0;
#X connect 8 0 9 0;
#X connect 9 0 5 1;
