#N canvas 433 56 955 706 10;
#X obj 7 73 unpackOSC;
#X obj 7 18 udpreceive 5432;
#X obj 7 96 routeOSC /emg /emgAvg /gyro /acc /orientation /pose;
#X obj 7 49 spigot;
#X obj 271 230 tgl 25 0 empty empty empty 17 7 0 10 -262144 -1 -1 0
1;
#X text 272 215 ON/OFF;
#X obj 12 175 r emg;
#X obj 12 197 unpack 0 0 0 0 0 0 0 0;
#X floatatom 272 263 10 0 0 0 EMG1 - -, f 10;
#X floatatom 272 283 10 0 0 0 EMG2 - -, f 10;
#X floatatom 272 303 10 0 0 0 EMG3 - -, f 10;
#X floatatom 272 323 10 0 0 0 EMG4 - -, f 10;
#X floatatom 272 344 10 0 0 0 EMG5 - -, f 10;
#X floatatom 273 366 10 0 0 0 EMG6 - -, f 10;
#X floatatom 273 386 10 0 0 0 EMG7 - -, f 10;
#X floatatom 273 408 10 0 0 0 EMG8 - -, f 10;
#X obj 138 351 r emgAvg;
#X obj 488 201 r gyro;
#X obj 601 255 r acc;
#X obj 730 316 r orientation;
#X obj 473 145 r pose;
#X floatatom 274 428 10 0 0 0 emgAvg - -, f 10;
#X floatatom 382 263 10 0 0 0 gyroX - -, f 10;
#X floatatom 382 283 10 0 0 0 gyroY - -, f 10;
#X floatatom 382 303 10 0 0 0 gyroZ - -, f 10;
#X floatatom 382 323 10 0 0 0 accX - -, f 10;
#X floatatom 382 344 10 0 0 0 accY - -, f 10;
#X floatatom 383 366 10 0 0 0 accZ - -, f 10;
#X floatatom 383 386 10 0 0 0 yaw - -, f 10;
#X floatatom 383 408 10 0 0 0 pitch - -, f 10;
#X floatatom 384 428 10 0 0 0 roll - -, f 10;
#X obj 488 223 unpack 0 0 0;
#X obj 601 277 unpack 0 0 0;
#X obj 730 338 unpack 0 0 0;
#X floatatom 381 243 10 0 0 0 pose - -, f 10;
#X obj 82 495 outlet;
#X obj 128 496 outlet;
#X obj 173 496 outlet;
#X obj 217 495 outlet;
#X obj 263 496 outlet;
#X obj 308 497 outlet;
#X obj 357 497 outlet;
#X obj 411 499 outlet;
#X obj 462 499 outlet;
#X obj 508 499 outlet;
#X obj 555 498 outlet;
#X obj 601 498 outlet;
#X obj 648 498 outlet;
#X obj 693 498 outlet;
#X obj 877 501 outlet;
#X obj 7 120 s emg;
#X obj 57 120 s emgAvg;
#X obj 108 120 s gyro;
#X obj 158 120 s acc;
#X obj 209 120 s orientation;
#X obj 309 120 s pose;
#X obj 742 498 outlet;
#X obj 789 499 outlet;
#X obj 833 500 outlet;
#X obj 31 496 outlet;
#X text 245 461 EMG;
#X text 350 462 GYRO;
#X text 201 454 A;
#X text 201 465 V;
#X text 201 475 G;
#X text 215 474 1;
#X text 231 474 2;
#X text 263 474 4;
#X text 247 474 3;
#X text 280 474 5;
#X text 296 474 6;
#X text 312 474 7;
#X text 328 474 8;
#X text 345 474 X;
#X text 361 474 Y;
#X text 377 474 Z;
#X text 394 474 X;
#X text 410 474 Y;
#X text 426 474 Z;
#X text 399 462 ACC;
#X text 442 461 ORIENT;
#X text 442 474 Y;
#X text 458 474 P;
#X text 474 474 R;
#X text 486 443 P;
#X text 486 454 O;
#X text 486 464 S;
#X text 486 474 E;
#X connect 0 0 2 0;
#X connect 1 0 3 0;
#X connect 2 0 50 0;
#X connect 2 1 51 0;
#X connect 2 2 52 0;
#X connect 2 3 53 0;
#X connect 2 4 54 0;
#X connect 2 5 55 0;
#X connect 3 0 0 0;
#X connect 4 0 3 1;
#X connect 6 0 7 0;
#X connect 7 0 8 0;
#X connect 7 0 35 0;
#X connect 7 1 9 0;
#X connect 7 1 36 0;
#X connect 7 2 10 0;
#X connect 7 2 37 0;
#X connect 7 3 11 0;
#X connect 7 3 38 0;
#X connect 7 4 12 0;
#X connect 7 4 39 0;
#X connect 7 5 13 0;
#X connect 7 5 40 0;
#X connect 7 6 14 0;
#X connect 7 6 41 0;
#X connect 7 7 15 0;
#X connect 7 7 42 0;
#X connect 16 0 21 0;
#X connect 16 0 59 0;
#X connect 17 0 31 0;
#X connect 18 0 32 0;
#X connect 19 0 33 0;
#X connect 20 0 34 0;
#X connect 20 0 49 0;
#X connect 31 0 22 0;
#X connect 31 0 43 0;
#X connect 31 1 23 0;
#X connect 31 1 44 0;
#X connect 31 2 24 0;
#X connect 31 2 45 0;
#X connect 32 0 25 0;
#X connect 32 0 46 0;
#X connect 32 1 26 0;
#X connect 32 1 47 0;
#X connect 32 2 27 0;
#X connect 32 2 48 0;
#X connect 33 0 28 0;
#X connect 33 0 56 0;
#X connect 33 1 29 0;
#X connect 33 1 57 0;
#X connect 33 2 30 0;
#X connect 33 2 58 0;
#X coords 0 -1 1 1 300 290 1 200 200;
