#N canvas 0 23 1104 479 10;
#X text -590 -333 To know more about it \, please visit: www.balandinodidonato.com
;
#X text -590 -375 This patch has been developed by Balandino Di Donato
as a part of his Research \, conducted at the Integra Lab of the Birmingham
Conservatoire (Birmingham City University).;
#X text -221 -282 Gyro X;
#X text -164 -281 Gyro Y;
#X text -101 -283 Gyro Z;
#X text 314 -282 Yaw;
#X text -19 -280 Orientation X;
#X text 73 -281 Orientation Y;
#X text 164 -281 Orientation Z;
#X text 379 -282 Pitch;
#X text 433 -284 Roll;
#X msg -220 -233 gyroX \$1;
#X msg -160 -233 gyroY \$1;
#X msg -100 -233 gyroZ \$1;
#X msg -19 -232 orientationX \$1;
#X msg 85 -232 orientationY \$1;
#X msg 185 -232 orientationZ \$1;
#X msg 316 -230 yaw \$1;
#X msg 377 -230 pitch \$1;
#X msg 437 -230 roll \$1;
#X obj -591 -202 s out;
#X obj -470 -204 s out;
#X obj -350 -204 s out;
#X obj -220 -204 s out;
#X obj -160 -203 s out;
#X obj -100 -203 s out;
#X obj -587 -68 r out;
#X obj -587 15 outlet;
#X obj -19 -204 s out;
#X obj 85 -203 s out;
#X obj 185 -203 s out;
#X obj 316 -204 s out;
#X obj 377 -203 s out;
#X obj 437 -203 s out;
#X obj -592 -101 s out;
#X msg -592 -123 rest \$1;
#X obj -512 -101 s out;
#X msg -512 -123 waveIn \$1;
#X obj -442 -101 s out;
#X msg -442 -123 waveOut \$1;
#X obj -362 -101 s out;
#X msg -362 -123 fist \$1;
#X obj -303 -101 s out;
#X msg -303 -123 doubleTap \$1;
#X obj -213 -101 s out;
#X msg -213 -123 fingersSpread \$1;
#X obj -103 -101 s out;
#X msg -103 -123 unknown \$1;
#X text -589 -167 Rest;
#X text -507 -166 Wave In;
#X text -443 -168 Wave Out;
#X text -363 -168 Fist;
#X text -303 -168 Double Tap;
#X text -212 -168 Fingers Spread;
#X text -102 -168 Unknown;
#X text -547 -10 output;
#X text -591 -403 "MyoToMIDI is a patch able to receive MIDI data from
the Thalmic Myo Armband and it output is a list of MIDI.;
#X msg -591 -234 accelerationX \$1;
#X msg -470 -234 accelerationY \$1;
#X msg -350 -233 accelerationZ \$1;
#X text -591 -277 Acceleration X;
#X text -473 -279 Acceleration Y;
#X text -352 -281 Acceleration Z;
#X text -293 50 Balandino Di Donato - 2015;
#X obj -591 -259 ctlin 101;
#X obj -470 -259 ctlin 102;
#X obj -350 -258 ctlin 103;
#X obj -220 -258 ctlin 104;
#X obj -160 -258 ctlin 105;
#X obj -100 -258 ctlin 106;
#X obj -19 -258 ctlin 107;
#X obj 85 -258 ctlin 108;
#X obj 185 -258 ctlin 109;
#X obj 377 -262 ctlin 111;
#X obj 316 -262 ctlin 110;
#X obj 437 -262 ctlin 112;
#X obj -592 -145 ctlin 113;
#X obj -512 -146 ctlin 115;
#X obj -442 -146 ctlin 116;
#X obj -362 -146 ctlin 114;
#X obj -303 -146 ctlin 118;
#X obj -213 -146 ctlin 117;
#X obj -103 -146 ctlin 119;
#X msg -383 21 disconnect;
#X msg -405 -1 connect 127.0.0.1 5432;
#X obj -588 -40 t a a;
#X obj -524 -22 list prepend send;
#X obj -523 12 list trim;
#X obj -325 -30 packOSC;
#X obj -440 47 udpsend;
#X connect 11 0 23 0;
#X connect 12 0 24 0;
#X connect 13 0 25 0;
#X connect 14 0 28 0;
#X connect 15 0 29 0;
#X connect 16 0 30 0;
#X connect 17 0 31 0;
#X connect 18 0 32 0;
#X connect 19 0 33 0;
#X connect 26 0 85 0;
#X connect 35 0 34 0;
#X connect 37 0 36 0;
#X connect 39 0 38 0;
#X connect 41 0 40 0;
#X connect 43 0 42 0;
#X connect 45 0 44 0;
#X connect 47 0 46 0;
#X connect 57 0 20 0;
#X connect 58 0 21 0;
#X connect 59 0 22 0;
#X connect 64 0 57 0;
#X connect 65 0 58 0;
#X connect 66 0 59 0;
#X connect 67 0 11 0;
#X connect 68 0 12 0;
#X connect 69 0 13 0;
#X connect 70 0 14 0;
#X connect 71 0 15 0;
#X connect 72 0 16 0;
#X connect 73 0 18 0;
#X connect 74 0 17 0;
#X connect 75 0 19 0;
#X connect 76 0 35 0;
#X connect 77 0 37 0;
#X connect 78 0 39 0;
#X connect 79 0 41 0;
#X connect 80 0 43 0;
#X connect 81 0 45 0;
#X connect 82 0 47 0;
#X connect 83 0 89 0;
#X connect 84 0 89 0;
#X connect 85 0 27 0;
#X connect 85 1 86 0;
#X connect 86 0 87 0;
#X connect 87 0 88 0;
#X connect 88 0 89 0;
#X coords 0 479 1 478 85 60 0;
