#N canvas 386 23 886 851 12;
#X obj -572 50 hsl 256 30 0 127 0 0 empty accelerationX accelerationX
60 16 0 15 -1 -262144 -4034 0 1;
#X obj -572 81 hsl 256 30 0 127 0 0 empty accelerationY accelerationY
60 16 0 15 -1 -262144 -4034 0 1;
#X obj -572 111 hsl 256 30 0 127 0 0 empty accelerationZ accelerationZ
60 16 0 15 -1 -262144 -4034 0 1;
#X obj -573 149 hsl 256 30 0 127 0 0 empty gyroX gyroX 60 16 0 15 -1
-262144 -4034 0 1;
#X obj -573 180 hsl 256 30 0 127 0 0 empty gyroY gyroY 60 16 0 15 -1
-262144 -4034 0 1;
#X obj -573 210 hsl 256 30 0 127 0 0 empty gyroZ gyroZ 60 16 0 15 -1
-262144 -4034 0 1;
#X obj -573 249 hsl 256 30 0 127 0 0 empty orientationX orientationX
60 16 0 15 -1 -262144 -4034 25500 1;
#X obj -573 280 hsl 256 30 0 127 0 0 empty orientationY orientationY
60 16 0 15 -1 -262144 -4034 12650 1;
#X obj -573 311 hsl 256 30 0 127 0 0 empty orientationZ orientationZ
60 16 0 15 -1 -262144 -4034 12650 1;
#X obj -573 356 hsl 256 30 0 127 0 0 empty yaw yaw 60 16 0 15 -1 -262144
-4034 12650 1;
#X obj -573 387 hsl 256 30 0 127 0 0 empty pitch pitch 60 16 0 15 -1
-262144 -4034 13252 1;
#X obj -573 417 hsl 256 30 0 127 0 0 empty roll roll 60 16 0 15 -1
-262144 -4034 12650 1;
#X text -546 -39 To know more about it \, please visit: www.balandinodidonato.com
;
#X text -254 591 Balandino Di Donato - 2015;
#X text -570 -102 This patch has been developed by Balandino Di Donato
as a part of his Research \, conducted at the Integra Lab of the Birmingham
Conservatoire (Birmingham City University).;
#X text -243 614 www.balandinodidonato.com;
#X obj -576 460 cnv 15 261 60 pose_snd pose_rcv Pose:rest 5 30 0 20
-1 -4034 0;
#X obj -129 -37 route accelerationX accelerationY accelerationZ gyroX
gyroY gyroZ orientationX orientationY orientationZ yaw pitch roll rest
waveIn waveOut fist doubleTap fingersSpread unkbown;
#X floatatom -129 54 5 0 0 0 accelerationX - accelerationX;
#X floatatom -108 84 5 0 0 0 accelerationY - accelerationY;
#X floatatom -86 112 5 0 0 0 accelerationZ - accelerationZ;
#X floatatom -65 158 5 0 0 0 gyroX - gyroX;
#X floatatom -43 182 5 0 0 0 gyroY - gyroY;
#X floatatom -22 207 5 0 0 0 gyroZ - gyroZ;
#X floatatom 0 247 5 0 0 0 orientationX - orientationX;
#X floatatom 22 270 5 0 0 0 orientationY - orientationY;
#X floatatom 43 294 5 0 0 0 orientationZ - orientationZ;
#X floatatom 65 339 5 0 0 0 yaw - yaw;
#X floatatom 86 361 5 0 0 0 pitch - pitch;
#X floatatom 108 385 5 0 0 0 roll - roll;
#X floatatom 129 452 5 0 0 0 rest - rest;
#X floatatom 151 475 5 0 0 0 waveIn - waveIn;
#X floatatom 173 497 5 0 0 0 waveOut - waveOut;
#X floatatom 216 546 5 0 0 0 doubleTap - doubleTap;
#X floatatom 237 569 5 0 0 0 fingersSpread - fingersSpread;
#X floatatom 259 593 5 0 0 0 unknown - unknown;
#X obj -129 -74 MyoToMIDI;
#N canvas 0 151 1396 146 pose 0;
#X obj 196 50 sel 127;
#X obj 196 14 r waveIn;
#X obj 410 57 sel 127;
#X obj 410 21 r waveOut;
#X obj 6 57 sel 127;
#X obj 6 21 r rest;
#X obj 633 56 sel 127;
#X obj 633 20 r fingersSpread;
#X obj 897 54 sel 127;
#X obj 897 18 r doubleTap;
#X obj 1132 53 sel 127;
#X obj 1132 17 r fist;
#X obj 1328 52 sel 127;
#X obj 1328 16 r unknown;
#X msg 6 86 \; pose_rcv label Pose:rest;
#X msg 196 85 \; pose_rcv label Pose:wave_In;
#X msg 410 86 \; pose_rcv label Pose:wave_Out;
#X msg 633 85 \; pose_rcv label Pose:fingers_Spread;
#X msg 897 83 \; pose_rcv label Pose:double_Tap;
#X msg 1328 81 \; pose_rcv label Pose:unknown;
#X msg 1132 82 \; pose_rcv label Pose:fist;
#X connect 0 0 15 0;
#X connect 1 0 0 0;
#X connect 2 0 16 0;
#X connect 3 0 2 0;
#X connect 4 0 14 0;
#X connect 5 0 4 0;
#X connect 6 0 17 0;
#X connect 7 0 6 0;
#X connect 8 0 18 0;
#X connect 9 0 8 0;
#X connect 10 0 20 0;
#X connect 11 0 10 0;
#X connect 12 0 19 0;
#X connect 13 0 12 0;
#X restore -576 526 pd pose;
#X floatatom 194 521 5 0 0 0 fist - fist;
#X text -571 -161 "MyoToMIDI-example" is a patch which aims to test
the MyoToMIDI script available trough the MyoMusic repository (https://github.com/balandinodidonato/MyoMusic).
;
#X connect 17 0 18 0;
#X connect 17 1 19 0;
#X connect 17 2 20 0;
#X connect 17 3 21 0;
#X connect 17 4 22 0;
#X connect 17 5 23 0;
#X connect 17 6 24 0;
#X connect 17 7 25 0;
#X connect 17 8 26 0;
#X connect 17 9 27 0;
#X connect 17 10 28 0;
#X connect 17 11 29 0;
#X connect 17 12 30 0;
#X connect 17 13 31 0;
#X connect 17 14 32 0;
#X connect 17 15 38 0;
#X connect 17 16 33 0;
#X connect 17 17 34 0;
#X connect 17 18 35 0;
#X connect 36 0 17 0;
#X coords 0 851 1 850 85 60 0;
