#N canvas 0 23 1100 699 10;
#X obj -592 75 ctlin 13;
#X obj -512 74 ctlin 15;
#X obj -442 74 ctlin 16;
#X obj -213 74 ctlin 17;
#X obj -303 74 ctlin 18;
#X obj -103 74 ctlin 19;
#X text -590 -113 To know more about it \, please visit: www.balandinodidonato.com
;
#X text -590 -155 This patch has been developed by Balandino Di Donato
as a part of his Research \, conducted at the Integra Lab of the Birmingham
Conservatoire (Birmingham City University).;
#X text -221 -62 Gyro X;
#X text -164 -61 Gyro Y;
#X text -101 -63 Gyro Z;
#X text 314 -62 Yaw;
#X text -19 -60 Orientation X;
#X text 73 -61 Orientation Y;
#X text 164 -61 Orientation Z;
#X text 379 -62 Pitch;
#X text 433 -64 Roll;
#X obj 437 -42 ctlin 12;
#X obj 377 -42 ctlin 11;
#X obj -100 -38 ctlin 6;
#X obj -160 -38 ctlin 5;
#X obj -220 -38 ctlin 4;
#X obj -350 -38 ctlin 3;
#X obj -470 -39 ctlin 2;
#X obj -591 -39 ctlin 1;
#X msg -220 -13 gyroX \$1;
#X msg -160 -13 gyroY \$1;
#X msg -100 -13 gyroZ \$1;
#X msg -19 -12 orientationX \$1;
#X msg 85 -12 orientationY \$1;
#X msg 185 -12 orientationZ \$1;
#X obj -19 -38 ctlin 7;
#X obj 85 -38 ctlin 8;
#X obj 185 -38 ctlin 9;
#X obj 316 -42 ctlin 10;
#X msg 316 -10 yaw \$1;
#X msg 377 -10 pitch \$1;
#X msg 437 -10 roll \$1;
#X obj -591 18 s out;
#X obj -470 16 s out;
#X obj -350 16 s out;
#X obj -220 16 s out;
#X obj -160 17 s out;
#X obj -100 17 s out;
#X obj -587 213 r out;
#X obj -587 235 outlet;
#X obj -19 16 s out;
#X obj 85 17 s out;
#X obj 185 17 s out;
#X obj 316 16 s out;
#X obj 377 17 s out;
#X obj 437 17 s out;
#X obj -592 119 s out;
#X msg -592 97 rest \$1;
#X obj -512 119 s out;
#X msg -512 97 waveIn \$1;
#X obj -442 119 s out;
#X msg -442 97 waveOut \$1;
#X obj -362 74 ctlin 14;
#X obj -362 119 s out;
#X msg -362 97 fist \$1;
#X obj -303 119 s out;
#X msg -303 97 doubleTap \$1;
#X obj -213 119 s out;
#X msg -213 97 fingersSpread \$1;
#X obj -103 119 s out;
#X msg -103 97 unknown \$1;
#X text -589 53 Rest;
#X text -507 54 Wave In;
#X text -443 52 Wave Out;
#X text -363 52 Fist;
#X text -303 52 Double Tap;
#X text -212 52 Fingers Spread;
#X text -102 52 Unknown;
#X text -547 210 output;
#X text -591 -183 "MyoToMIDI is a patch able to receive MIDI data from
the Thalmic Myo Armband and it output is a list of MIDI.;
#X text 115 72 use the oject route to extract the MIDI data;
#X obj 72 73 r out;
#X msg -591 -14 accelerationX \$1;
#X msg -470 -14 accelerationY \$1;
#X msg -350 -13 accelerationZ \$1;
#X obj 72 95 route accelerationX accelerationY accelerationZ gyroX
gyroY gyroZ orientationX orientationY orientationZ yaw pitch roll rest
waveIn waveOut fist doubleTap fingersSpread unkbown;
#X floatatom 72 156 5 0 0 0 accelerationX - -;
#X floatatom 90 176 5 0 0 0 accelerationY - -;
#X floatatom 108 196 5 0 0 0 accelerationZ - -;
#X floatatom 127 216 5 0 0 0 gyroX - -;
#X floatatom 145 236 5 0 0 0 gyroY - -;
#X floatatom 164 257 5 0 0 0 gyroZ - -;
#X floatatom 182 277 5 0 0 0 orientationX - -;
#X floatatom 201 297 5 0 0 0 orientationY - -;
#X floatatom 219 317 5 0 0 0 orientationZ - -;
#X floatatom 238 337 5 0 0 0 yaw - -;
#X floatatom 256 357 5 0 0 0 pitch - -;
#X floatatom 275 377 5 0 0 0 roll - -;
#X floatatom 293 397 5 0 0 0 rest - -;
#X floatatom 312 417 5 0 0 0 waveIn - -;
#X floatatom 330 437 5 0 0 0 waveOut - -;
#X floatatom 349 457 5 0 0 0 doubleTap - -;
#X floatatom 367 477 5 0 0 0 fingersSpread - -;
#X floatatom 386 497 5 0 0 0 uncknown - -;
#X text -591 -57 Acceleration X;
#X text -473 -59 Acceleration Y;
#X text -352 -61 Acceleration Z;
#X text -192 496 Balandino Di Donato - 2015;
#X connect 0 0 53 0;
#X connect 1 0 55 0;
#X connect 2 0 57 0;
#X connect 3 0 64 0;
#X connect 4 0 62 0;
#X connect 5 0 66 0;
#X connect 17 0 37 0;
#X connect 18 0 36 0;
#X connect 19 0 27 0;
#X connect 20 0 26 0;
#X connect 21 0 25 0;
#X connect 22 0 80 0;
#X connect 23 0 79 0;
#X connect 24 0 78 0;
#X connect 25 0 41 0;
#X connect 26 0 42 0;
#X connect 27 0 43 0;
#X connect 28 0 46 0;
#X connect 29 0 47 0;
#X connect 30 0 48 0;
#X connect 31 0 28 0;
#X connect 32 0 29 0;
#X connect 33 0 30 0;
#X connect 34 0 35 0;
#X connect 35 0 49 0;
#X connect 36 0 50 0;
#X connect 37 0 51 0;
#X connect 44 0 45 0;
#X connect 53 0 52 0;
#X connect 55 0 54 0;
#X connect 57 0 56 0;
#X connect 58 0 60 0;
#X connect 60 0 59 0;
#X connect 62 0 61 0;
#X connect 64 0 63 0;
#X connect 66 0 65 0;
#X connect 77 0 81 0;
#X connect 78 0 38 0;
#X connect 79 0 39 0;
#X connect 80 0 40 0;
#X connect 81 0 82 0;
#X connect 81 1 83 0;
#X connect 81 2 84 0;
#X connect 81 3 85 0;
#X connect 81 4 86 0;
#X connect 81 5 87 0;
#X connect 81 6 88 0;
#X connect 81 7 89 0;
#X connect 81 8 90 0;
#X connect 81 9 91 0;
#X connect 81 10 92 0;
#X connect 81 11 93 0;
#X connect 81 12 94 0;
#X connect 81 13 95 0;
#X connect 81 14 96 0;
#X connect 81 15 97 0;
#X connect 81 16 98 0;
#X connect 81 17 99 0;
#X coords 0 699 1 698 85 60 0;
